<svg width="578" height="72" viewBox="0 0 578 72" fill="none" xmlns="http://www.w3.org/2000/svg">
<g filter="url(#filter0_d)">
<path d="M34.2285 1.38736C21.9912 2.87751 11.3343 8.1608 5.73492 15.3858C-2.16742 25.6814 -1.76101 41.3958 6.63805 49.9755C10.7473 54.175 17.1143 56.3877 23.5265 55.7555C32.3771 54.9427 38.1571 51.1947 41.4987 44.2406C43.0791 40.9442 43.1243 40.7185 43.1243 35.4352C43.1243 30.2874 43.034 29.881 41.6793 26.991C38.9248 21.1206 34.1834 17.5533 29.171 17.5081C23.0298 17.463 20.7268 22.7914 26.2359 24.4622C27.8163 24.9138 28.584 24.8686 31.2482 24.1913L34.4091 23.3785L35.4929 24.417C36.0799 25.0041 37.1637 26.5845 37.841 27.9392C38.9699 30.2422 39.0602 30.9195 39.0602 35.661C39.0602 40.4024 38.9699 41.0345 37.841 43.1117C34.7252 49.1175 28.1324 52.3236 20.0946 51.7817C17.4304 51.6463 15.6241 51.2399 13.863 50.4271C7.76695 47.6725 4.06414 40.7185 4.06414 32.2742C4.06414 25.275 6.14133 20.3981 11.3343 15.2503C14.0888 12.4958 15.6241 11.3669 19.0109 9.74126C25.5134 6.62548 31.1127 5.36111 40.4149 5.09017C52.878 4.68376 62.8576 6.67064 77.7591 12.4506C79.9266 13.3086 81.8684 13.986 82.0941 13.986C82.2748 13.986 83.1327 13.3989 83.9907 12.7216L85.526 11.412L79.6557 9.15423C65.2057 3.46454 56.3551 1.43251 45.1563 1.11642C41.0471 1.0261 36.1702 1.11642 34.2285 1.38736Z" fill="#171412"/>
<path d="M526.657 1.34224C519.071 2.15505 509.363 4.81927 498.344 9.15427L492.474 11.4121L494.009 12.7216C494.867 13.399 495.725 13.986 495.906 13.986C496.087 13.986 497.306 13.5344 498.615 13.0377C507.511 9.47036 517.22 6.71583 524.806 5.58693C532.302 4.50318 543.546 4.90958 550.003 6.53521C557.228 8.2963 562.421 11.0508 566.666 15.2504C571.859 20.3982 573.936 25.275 573.936 32.2743C573.936 36.4738 572.852 40.8991 571.046 43.9697C568.111 48.9821 564.047 51.4205 557.906 51.7818C549.868 52.3236 543.275 49.1175 540.159 43.1118C539.03 41.0346 538.94 40.4024 538.94 35.661C538.94 30.9196 539.03 30.2422 540.159 27.9393C540.837 26.5846 541.92 25.0041 542.507 24.4171L543.591 23.3785L546.752 24.1913C549.416 24.8686 550.184 24.9138 551.764 24.4622C557.273 22.7915 554.97 17.463 548.829 17.5082C543.817 17.5533 539.075 21.1207 536.321 26.991C534.966 29.881 534.876 30.2874 534.876 35.4352C534.876 40.7185 534.921 40.9443 536.502 44.2407C539.075 49.6143 543.591 53.4074 549.281 54.8975C560.48 57.8778 570.64 53.8138 575.2 44.5568C579.761 35.2997 578.587 23.83 572.175 15.3407C564.227 4.77411 546.3 -0.734947 526.657 1.34224Z" fill="#171412"/>
<path d="M205.371 2.65173C201.984 3.73548 200.042 4.99986 197.604 7.70923C194.849 10.7799 193.946 13.5795 193.991 18.9531C194.037 23.6945 195.391 28.5714 197.604 32.0936C198.236 33.1322 198.688 33.9902 198.597 34.0805C198.507 34.1708 195.391 32.5 191.688 30.3777C174.123 20.3078 158.182 12.5861 147.661 9.01876C130.773 3.23876 112.53 2.60658 97.9892 7.30283C86.9259 10.825 77.9398 18.2758 73.2887 27.7586C71.2116 31.9581 70.6697 34.4869 70.7148 39.725C70.76 43.7439 70.9406 44.9631 71.9341 47.5822C75.8175 57.5166 84.623 63.6578 95.0541 63.6578C99.389 63.6578 102.55 62.845 106.795 60.7678C112.755 57.7875 117.181 53.3622 117.406 50.111C117.632 47.3113 117.361 46.363 115.871 44.8728C114.697 43.6988 113.975 43.3375 112.755 43.3375C109.414 43.3375 107.743 46.4081 108.375 51.4205C108.691 53.9944 108.601 54.1299 105.214 56.0716C101.737 58.0585 98.3505 58.8261 93.7445 58.6003C90.2675 58.4649 89.1837 58.1939 86.5647 56.9296C78.1205 52.8655 73.6951 43.2924 76.0884 34.1708C78.7526 23.9203 89.4095 14.302 100.608 11.9539C104.808 11.096 114.607 11.0508 119.438 11.9088C134.205 14.5278 149.016 20.5336 184.915 38.4606C207.674 49.8852 215.441 53.0461 227.272 55.9361C239.373 58.9164 251.882 59.6841 260.326 58.0585C274.234 55.3491 283.536 47.2661 286.562 35.2545C287.691 30.7389 287.284 24.0106 285.704 20.6691C281.73 12.4506 270.486 8.79298 259.558 12.1797C254.365 13.7602 251.069 16.9663 251.069 20.3981C251.069 24.417 256.668 25.1847 259.919 21.5722C260.461 21.0303 261.365 19.6305 261.906 18.5016C262.493 17.3727 263.171 16.3341 263.442 16.1535C264.345 15.5213 271.163 15.7922 273.557 16.4695C276.853 17.463 279.517 19.6305 281.007 22.5656C282.227 24.9138 282.272 25.3202 282.136 30.0164C282.001 34.6675 281.911 35.2094 280.285 38.551C277.034 45.3696 270.305 50.4722 261.229 52.9106C255.901 54.3105 244.25 54.3556 237.432 52.9106C218.376 48.9369 202.661 37.693 198.778 25.275C197.604 21.4819 197.739 14.7536 199.004 12.3603C200.313 9.92189 203.203 7.43829 205.822 6.58033C207.945 5.81267 215.17 5.58689 216.118 6.21907C216.389 6.3997 217.202 7.79955 217.879 9.38001C219.279 12.4958 220.363 13.5344 222.259 13.5344C224.878 13.5344 225.962 10.825 224.517 7.88986C222.079 2.83236 212.776 0.303604 205.371 2.65173Z" fill="#171412"/>
<path d="M361.927 2.06469C355.064 3.78063 350.638 9.65094 353.844 12.8119C354.702 13.715 356.689 13.7602 357.908 12.9022C358.405 12.5409 359.399 10.9605 360.121 9.38C360.798 7.79953 361.611 6.39969 361.882 6.21907C362.83 5.58688 370.055 5.81266 372.178 6.58031C374.797 7.43829 377.687 9.92188 378.996 12.3603C380.261 14.7536 380.396 21.4819 379.222 25.275C375.339 37.693 359.624 48.9369 340.568 52.9106C333.75 54.3556 322.1 54.3105 316.771 52.9106C307.695 50.4722 300.966 45.3695 297.715 38.551C296.09 35.2094 295.999 34.6675 295.864 30.0164C295.728 25.3202 295.773 24.9138 296.993 22.5656C298.483 19.6305 301.147 17.463 304.443 16.4695C306.837 15.7922 313.7 15.5213 314.558 16.1534C314.784 16.3341 315.462 17.3727 316.049 18.5016C317.945 22.2044 320.158 23.9203 323.093 23.9203C325.215 23.9203 326.931 22.2947 326.931 20.2175C326.931 16.9663 323.499 13.715 318.442 12.1797C307.514 8.79297 296.27 12.4506 292.296 20.6691C290.716 24.0106 290.31 30.7389 291.438 35.2545C293.832 44.8277 300.515 52.1881 310.178 55.9361C320.384 59.8647 334.608 59.8647 350.729 55.9361C362.559 53.0461 370.326 49.8852 393.085 38.4606C428.984 20.5336 443.796 14.5278 458.562 11.9088C463.98 10.9605 473.554 11.0959 478.069 12.1797C489.313 14.8439 499.293 24.1009 501.912 34.1708C504.305 43.2924 499.88 52.8655 491.435 56.9296C485.52 59.7744 477.256 59.1422 471.702 55.4394L469.489 53.9492L469.58 49.9755C469.67 46.1372 469.625 46.0017 468.315 44.6922C464.838 41.17 459.42 45.1438 460.594 50.3367C461.181 52.8655 463.077 55.3491 466.148 57.6521C471.612 61.7161 477.031 63.6578 482.946 63.6578C500.512 63.6578 512.207 46.1372 505.569 29.7455C498.48 12.2248 477.798 2.29047 452.782 4.45797C440.589 5.45141 431.287 8.02532 417.876 13.9859C410.154 17.4178 397.194 24.1913 386.312 30.3777C382.609 32.5 379.493 34.1708 379.403 34.0805C379.312 33.9902 379.764 33.1322 380.396 32.0936C382.609 28.5714 383.964 23.6945 384.009 18.9531C384.054 12.9925 383.151 10.5541 379.583 6.94157C375.926 3.32906 373.036 2.155 367.12 1.97438C364.772 1.92922 362.424 1.92922 361.927 2.06469Z" fill="#171412"/>
<path d="M92.9317 16.2438C92.0286 16.7405 91.1706 17.3275 91.0351 17.5533C90.6287 18.1403 113.523 28.2553 127.341 33.5386C130.953 34.8933 138.585 37.6478 144.274 39.6347C150.009 41.6216 154.976 43.3827 155.338 43.5181C155.699 43.6988 156.376 44.3761 156.783 45.1438C158.273 47.808 163.466 47.8531 163.827 45.2341C164.143 42.9763 161.389 41.3055 152.086 38.1445C138.088 33.358 116.052 24.8235 105.756 20.2627C99.66 17.5533 94.6928 15.3406 94.6476 15.3406C94.6025 15.3858 93.8348 15.7922 92.9317 16.2438Z" fill="#171412"/>
<path d="M472.063 20.3078C461.948 24.8235 440.138 33.2677 425.914 38.1445C416.612 41.3055 413.857 42.9763 414.173 45.2341C414.534 47.8531 419.727 47.808 421.217 45.1438C421.624 44.3761 422.301 43.6988 422.662 43.5181C423.024 43.3827 428.036 41.6216 433.726 39.6347C439.461 37.6478 447.047 34.8933 450.659 33.5386C464.522 28.2102 487.371 18.1403 486.965 17.5533C486.739 17.1469 483.352 15.2955 483.082 15.3858C482.991 15.3858 478.024 17.5985 472.063 20.3078Z" fill="#171412"/>
<path d="M139.081 30.6938C139.081 30.8292 140.752 31.5517 142.829 32.2742C146.487 33.6289 146.668 33.6289 158.182 33.8547C164.549 33.9902 169.788 33.945 169.788 33.8095C169.788 33.6289 168.523 32.9516 166.988 32.2291L164.143 30.9195L151.59 30.6938C144.726 30.5583 139.081 30.5583 139.081 30.6938Z" fill="#171412"/>
<path d="M426.049 30.6938L413.857 30.9195L411.057 32.2291C409.477 32.9516 408.212 33.6289 408.212 33.8095C408.212 33.945 413.451 33.9902 419.818 33.8547C431.332 33.6289 431.513 33.6289 435.216 32.2742C437.248 31.5517 438.919 30.7841 438.919 30.6034C438.919 30.3777 438.783 30.2873 438.603 30.3325C438.377 30.3777 432.777 30.5583 426.049 30.6938Z" fill="#171412"/>
<path d="M6.3219 32.2742V33.8547H21.7202C35.5832 33.8547 37.1185 33.7644 36.8475 33.1322C36.7121 32.7258 36.5766 32.0485 36.5766 31.5517C36.5766 30.7389 36.0799 30.6938 21.4492 30.6938H6.3219V32.2742Z" fill="#171412"/>
<path d="M45.6982 32.1388L45.8337 33.6289L57.1679 33.7644L68.5021 33.8547L68.9537 32.2742L69.4504 30.6938H57.484H45.5627L45.6982 32.1388Z" fill="#171412"/>
<path d="M79.746 31.1002C79.6105 31.2808 79.2944 32.0033 79.0686 32.6355L78.6171 33.8547L99.7954 33.945C111.491 34.0353 121.019 33.9901 121.019 33.8547C121.019 33.7192 119.348 32.9516 117.271 32.1388L113.523 30.6938H96.7699C87.5128 30.6938 79.8814 30.8744 79.746 31.1002Z" fill="#171412"/>
<path d="M205.28 32.2742L206.455 33.8547H242.534H278.614V32.2742V30.6938H241.315H204.061L205.28 32.2742Z" fill="#171412"/>
<path d="M299.386 32.2742V33.8547H335.466H371.546L372.72 32.2742L373.939 30.6938H336.685H299.386V32.2742Z" fill="#171412"/>
<path d="M460.503 32.1839C458.562 32.9967 456.981 33.7192 456.981 33.8547C456.981 33.9901 466.509 34.0353 478.205 33.945L499.428 33.8547L498.841 32.3645L498.254 30.9196L481.095 30.8292L463.98 30.7841L460.503 32.1839Z" fill="#171412"/>
<path d="M509.047 32.2742L509.498 33.8547H520.697C532.663 33.8547 532.392 33.8999 532.392 31.5517C532.392 30.7389 531.941 30.6938 520.471 30.6938H508.55L509.047 32.2742Z" fill="#171412"/>
<path d="M541.423 31.5517C541.423 32.0485 541.288 32.7258 541.153 33.1322C540.882 33.7644 542.417 33.8547 556.28 33.8547H571.678V32.2742V30.6938H556.551C541.92 30.6938 541.423 30.7389 541.423 31.5517Z" fill="#171412"/>
</g>
<defs>
<filter id="filter0_d" x="-3.9364" y="0.908966" width="585.889" height="70.7489" filterUnits="userSpaceOnUse" color-interpolation-filters="sRGB">
<feFlood flood-opacity="0" result="BackgroundImageFix"/>
<feColorMatrix in="SourceAlpha" type="matrix" values="0 0 0 0 0 0 0 0 0 0 0 0 0 0 0 0 0 0 127 0"/>
<feOffset dy="4"/>
<feGaussianBlur stdDeviation="2"/>
<feColorMatrix type="matrix" values="0 0 0 0 0 0 0 0 0 0 0 0 0 0 0 0 0 0 0.25 0"/>
<feBlend mode="normal" in2="BackgroundImageFix" result="effect1_dropShadow"/>
<feBlend mode="normal" in="SourceGraphic" in2="effect1_dropShadow" result="shape"/>
</filter>
</defs>
</svg>
